<svg xmlns="http://www.w3.org/2000/svg">
  <defs>
    <symbol id="icon-shooter" viewBox="0 0 100 100">
      <!-- crosshair ring -->
      <path fill-rule="evenodd" d="M50 10 A40 40 0 0 1 90 50 A40 40 0 0 1 50 90 A40 40 0 0 1 10 50 A40 40 0 0 1 50 10 Z M50 22 A28 28 0 0 0 78 50 A28 28 0 0 0 50 78 A28 28 0 0 0 22 50 A28 28 0 0 0 50 22 Z"/>
      <!-- tick marks -->
      <rect x="46" y="0" width="8" height="18"/>
      <rect x="46" y="82" width="8" height="18"/>
      <rect x="0" y="46" width="18" height="8"/>
      <rect x="82" y="46" width="18" height="8"/>
      <!-- center dot -->
      <circle cx="50" cy="50" r="6"/>
    </symbol>
    <symbol id="icon-card" viewBox="0 0 100 100">
      <!-- card outline -->
      <path fill-rule="evenodd" d="M20 5 Q12 5 12 13 L12 87 Q12 95 20 95 L80 95 Q88 95 88 87 L88 13 Q88 5 80 5 Z M80 14 L20 14 L20 86 L80 86 Z"/>
      <!-- diamond suit -->
      <path d="M50 28 L67 50 L50 72 L33 50 Z"/>
    </symbol>
  </defs>
</svg>
