<?xml version="1.0" encoding="UTF-8"?>
<svg width="100pt" height="100pt" version="1.1" viewBox="0 0 100 100" xmlns="http://www.w3.org/2000/svg">
  <path fill-rule="evenodd" d="M50 10 A40 40 0 0 1 90 50 A40 40 0 0 1 50 90 A40 40 0 0 1 10 50 A40 40 0 0 1 50 10 Z M50 22 A28 28 0 0 0 78 50 A28 28 0 0 0 50 78 A28 28 0 0 0 22 50 A28 28 0 0 0 50 22 Z"/>
  <rect x="46" y="0" width="8" height="18"/>
  <rect x="46" y="82" width="8" height="18"/>
  <rect x="0" y="46" width="18" height="8"/>
  <rect x="82" y="46" width="18" height="8"/>
  <circle cx="50" cy="50" r="6"/>
</svg>
